<svg width="1001" height="860" viewBox="0 0 1001 860" fill="none" xmlns="http://www.w3.org/2000/svg">
<path d="M12.5416 40.3117L12.2405 40.7686L12.4632 41.2685L12.0063 40.9674L11.5064 41.1901L11.8075 40.7332L11.5848 40.2333L12.0418 40.5344L12.5416 40.3117Z" fill="white"/>
<path d="M142.545 79.3036L142.244 79.7606L142.467 80.2604L142.01 79.9593L141.51 80.182L141.811 79.7251L141.588 79.2252L142.045 79.5263L142.545 79.3036Z" fill="white"/>
<path d="M63.0797 124.13L62.7786 124.587L63.0013 125.087L62.5444 124.786L62.0445 125.008L62.3456 124.552L62.1229 124.052L62.5799 124.353L63.0797 124.13Z" fill="white"/>
<path d="M75.3053 52.8152L75.0042 53.2722L75.2269 53.7721L74.77 53.4709L74.2701 53.6937L74.5712 53.2367L74.3485 52.7368L74.8054 53.0379L75.3053 52.8152Z" fill="white"/>
<path d="M37.9498 69.7949L37.6487 70.2519L37.8715 70.7517L37.4145 70.4506L36.9146 70.6734L37.2157 70.2164L36.993 69.7165L37.45 70.0176L37.9498 69.7949Z" fill="white"/>
<path d="M274.308 112.584L274.006 113.041L274.229 113.541L273.772 113.24L273.272 113.462L273.573 113.005L273.351 112.505L273.808 112.807L274.308 112.584Z" fill="white"/>
<path d="M155.45 41.9481L155.148 42.4051L155.371 42.905L154.914 42.6039L154.414 42.8266L154.715 42.3696L154.493 41.8698L154.95 42.1709L155.45 41.9481Z" fill="white"/>
<path d="M443.426 81.3411L443.125 81.7981L443.347 82.298L442.89 81.9969L442.39 82.2196L442.692 81.7626L442.469 81.2627L442.926 81.5638L443.426 81.3411Z" fill="white"/>
<path d="M285.854 192.728L285.553 193.185L285.776 193.685L285.319 193.384L284.819 193.607L285.12 193.15L284.897 192.65L285.354 192.951L285.854 192.728Z" fill="white"/>
<path d="M154.77 139.072L154.469 139.529L154.692 140.029L154.235 139.728L153.735 139.951L154.036 139.494L153.814 138.994L154.271 139.295L154.77 139.072Z" fill="white"/>
<path d="M149.337 244.347L149.036 244.804L149.258 245.303L148.801 245.002L148.302 245.225L148.603 244.768L148.38 244.268L148.837 244.569L149.337 244.347Z" fill="white"/>
<path d="M555.492 234.838L555.191 235.295L555.413 235.795L554.956 235.494L554.457 235.716L554.758 235.259L554.535 234.76L554.992 235.061L555.492 234.838Z" fill="white"/>
<path d="M686.575 101.038L686.274 101.495L686.497 101.994L686.04 101.693L685.54 101.916L685.841 101.459L685.618 100.959L686.075 101.26L686.575 101.038Z" fill="white"/>
<path d="M873.352 220.575L873.051 221.032L873.274 221.532L872.817 221.231L872.317 221.453L872.618 220.996L872.396 220.497L872.853 220.798L873.352 220.575Z" fill="white"/>
<path d="M787.775 433.84L787.473 434.297L787.696 434.797L787.239 434.496L786.739 434.719L787.04 434.262L786.818 433.762L787.275 434.063L787.775 433.84Z" fill="white"/>
<path d="M875.39 569.678L875.089 570.135L875.312 570.635L874.855 570.334L874.355 570.557L874.656 570.1L874.433 569.6L874.89 569.901L875.39 569.678Z" fill="white"/>
<path d="M665.521 593.45L665.22 593.907L665.442 594.407L664.985 594.106L664.485 594.328L664.787 593.871L664.564 593.371L665.021 593.673L665.521 593.45Z" fill="white"/>
<path d="M423.729 567.641L423.428 568.098L423.651 568.597L423.194 568.296L422.694 568.519L422.995 568.062L422.772 567.562L423.229 567.863L423.729 567.641Z" fill="white"/>
<path d="M543.266 310.228L542.965 310.685L543.188 311.185L542.731 310.884L542.231 311.106L542.532 310.649L542.31 310.15L542.767 310.451L543.266 310.228Z" fill="white"/>
<path d="M358.527 256.572L358.226 257.029L358.449 257.529L357.992 257.228L357.492 257.45L357.793 256.993L357.57 256.494L358.027 256.795L358.527 256.572Z" fill="white"/>
<path d="M216.577 513.305L216.275 513.762L216.498 514.262L216.041 513.961L215.541 514.184L215.842 513.727L215.62 513.227L216.077 513.528L216.577 513.305Z" fill="white"/>
<path d="M51.5336 435.878L51.2325 436.335L51.4552 436.835L50.9982 436.534L50.4984 436.756L50.7995 436.299L50.5767 435.8L51.0337 436.101L51.5336 435.878Z" fill="white"/>
<path d="M53.5712 200.199L53.2701 200.656L53.4928 201.156L53.0358 200.855L52.536 201.078L52.8371 200.621L52.6143 200.121L53.0713 200.422L53.5712 200.199Z" fill="white"/>
<path d="M272.27 222.612L271.969 223.069L272.192 223.569L271.735 223.268L271.235 223.491L271.536 223.034L271.313 222.534L271.77 222.835L272.27 222.612Z" fill="white"/>
<path d="M657.37 224.65L657.069 225.107L657.292 225.607L656.835 225.306L656.335 225.529L656.636 225.072L656.413 224.572L656.87 224.873L657.37 224.65Z" fill="white"/>
<path d="M583.339 384.26L583.038 384.716L583.26 385.216L582.803 384.915L582.304 385.138L582.605 384.681L582.382 384.181L582.839 384.482L583.339 384.26Z" fill="white"/>
<path d="M493.006 467.8L492.705 468.257L492.928 468.757L492.471 468.456L491.971 468.678L492.272 468.221L492.05 467.721L492.507 468.022L493.006 467.8Z" fill="white"/>
<path d="M368.036 278.985L367.735 279.442L367.957 279.942L367.5 279.641L367.001 279.864L367.302 279.407L367.079 278.907L367.536 279.208L368.036 278.985Z" fill="white"/>
<path d="M515.42 156.052L515.119 156.509L515.341 157.009L514.884 156.708L514.385 156.93L514.686 156.473L514.463 155.974L514.92 156.275L515.42 156.052Z" fill="white"/>
<path d="M77.3427 505.834L77.0416 506.291L77.2643 506.791L76.8073 506.49L76.3074 506.713L76.6085 506.256L76.3858 505.756L76.8428 506.057L77.3427 505.834Z" fill="white"/>
<path d="M61.0421 300.719L60.741 301.176L60.9637 301.676L60.5068 301.375L60.0069 301.598L60.308 301.141L60.0853 300.641L60.5423 300.942L61.0421 300.719Z" fill="white"/>
<path d="M435.276 293.248L434.974 293.705L435.197 294.205L434.74 293.904L434.24 294.127L434.541 293.67L434.319 293.17L434.776 293.471L435.276 293.248Z" fill="white"/>
<path d="M585.376 581.904L585.075 582.361L585.298 582.86L584.841 582.559L584.341 582.782L584.642 582.325L584.42 581.825L584.876 582.126L585.376 581.904Z" fill="white"/>
<path d="M328.643 641.672L328.342 642.129L328.564 642.629L328.107 642.328L327.607 642.551L327.909 642.094L327.686 641.594L328.143 641.895L328.643 641.672Z" fill="white"/>
<path d="M326.605 391.051L326.304 391.508L326.527 392.008L326.07 391.707L325.57 391.93L325.871 391.473L325.648 390.973L326.105 391.274L326.605 391.051Z" fill="white"/>
<path d="M853.656 83.3787L853.355 83.8356L853.578 84.3355L853.121 84.0344L852.621 84.2571L852.922 83.8001L852.699 83.3003L853.156 83.6014L853.656 83.3787Z" fill="white"/>
<path d="M911.387 54.8528L911.086 55.3097L911.309 55.8096L910.852 55.5085L910.352 55.7312L910.653 55.2742L910.43 54.7744L910.887 55.0755L911.387 54.8528Z" fill="white"/>
<path d="M918.858 591.412L918.557 591.869L918.78 592.369L918.323 592.068L917.823 592.291L918.124 591.834L917.901 591.334L918.358 591.635L918.858 591.412Z" fill="white"/>
<path d="M778.945 673.594L778.644 674.051L778.867 674.551L778.41 674.25L777.91 674.473L778.211 674.016L777.988 673.516L778.445 673.817L778.945 673.594Z" fill="white"/>
<path d="M687.255 380.864L686.953 381.321L687.176 381.82L686.719 381.519L686.219 381.742L686.52 381.285L686.298 380.785L686.755 381.086L687.255 380.864Z" fill="white"/>
<path d="M399.039 437.754L398.436 438.669L398.882 439.669L397.968 439.067L396.967 439.512L397.57 438.598L397.124 437.598L398.039 438.2L399.039 437.754Z" fill="white"/>
<path d="M230.956 322.292L230.354 323.207L230.8 324.207L229.885 323.604L228.885 324.05L229.487 323.136L229.042 322.135L229.956 322.738L230.956 322.292Z" fill="white"/>
<path d="M637.112 126.686L636.509 127.6L636.955 128.6L636.04 127.998L635.04 128.444L635.643 127.529L635.197 126.529L636.111 127.131L637.112 126.686Z" fill="white"/>
<path d="M478.861 41.1079L478.258 42.0223L478.704 43.0225L477.789 42.42L476.789 42.8656L477.392 41.9513L476.946 40.951L477.86 41.5535L478.861 41.1079Z" fill="white"/>
<path d="M330.797 43.1455L330.195 44.0599L330.641 45.0601L329.726 44.4576L328.726 44.9033L329.328 43.9889L328.883 42.9887L329.797 43.5912L330.797 43.1455Z" fill="white"/>
<path d="M757.328 21.4114L756.726 22.3258L757.171 23.326L756.257 22.7235L755.257 23.1692L755.859 22.2548L755.414 21.2546L756.328 21.8571L757.328 21.4114Z" fill="white"/>
<path d="M620.132 439.792L619.529 440.706L619.975 441.707L619.061 441.104L618.06 441.55L618.663 440.635L618.217 439.635L619.132 440.238L620.132 439.792Z" fill="white"/>
<path d="M146.058 423.491L145.455 424.406L145.901 425.406L144.987 424.804L143.986 425.249L144.589 424.335L144.143 423.335L145.058 423.937L146.058 423.491Z" fill="white"/>
<path d="M123.645 638.115L123.042 639.03L123.488 640.03L122.573 639.427L121.573 639.873L122.176 638.959L121.73 637.958L122.644 638.561L123.645 638.115Z" fill="white"/>
<path d="M48.9339 383.419L48.3314 384.334L48.7771 385.334L47.8627 384.731L46.8625 385.177L47.465 384.263L47.0193 383.262L47.9337 383.865L48.9339 383.419Z" fill="white"/>
<path d="M41.4627 596.005L40.8602 596.92L41.3059 597.92L40.3915 597.318L39.3913 597.763L39.9938 596.849L39.5481 595.849L40.4625 596.451L41.4627 596.005Z" fill="white"/>
<path d="M15.6534 225.168L15.0509 226.083L15.4966 227.083L14.5822 226.48L13.5819 226.926L14.1844 226.012L13.7388 225.011L14.6532 225.614L15.6534 225.168Z" fill="white"/>
<path d="M509.185 64.6147L508.649 64.7249L508.453 65.2359L508.342 64.6998L507.832 64.5039L508.368 64.3937L508.564 63.8827L508.674 64.4187L509.185 64.6147Z" fill="white"/>
<path d="M650.861 162.107L650.325 162.218L650.129 162.729L650.019 162.193L649.508 161.997L650.044 161.886L650.24 161.375L650.35 161.911L650.861 162.107Z" fill="white"/>
<path d="M460.678 129.45L460.142 129.56L459.946 130.071L459.836 129.535L459.325 129.339L459.861 129.229L460.057 128.718L460.167 129.254L460.678 129.45Z" fill="white"/>
<path d="M327.647 69.4174L327.111 69.5276L326.915 70.0385L326.804 69.5025L326.293 69.3065L326.829 69.1963L327.025 68.6853L327.136 69.2214L327.647 69.4174Z" fill="white"/>
<path d="M621.565 349.889L621.029 349.999L620.833 350.51L620.723 349.974L620.212 349.778L620.748 349.668L620.944 349.157L621.054 349.693L621.565 349.889Z" fill="white"/>
<path d="M808.866 347.968L808.33 348.078L808.134 348.589L808.024 348.053L807.513 347.857L808.049 347.747L808.245 347.236L808.355 347.772L808.866 347.968Z" fill="white"/>
<path d="M856.412 564.565L855.876 564.675L855.68 565.186L855.57 564.65L855.059 564.454L855.595 564.344L855.791 563.833L855.901 564.369L856.412 564.565Z" fill="white"/>
<path d="M645.098 654.853L644.562 654.964L644.366 655.474L644.256 654.938L643.745 654.742L644.281 654.632L644.477 654.121L644.587 654.657L645.098 654.853Z" fill="white"/>
<path d="M611 812.859L610.464 812.969L610.268 813.48L610.157 812.944L609.646 812.748L610.182 812.638L610.378 812.127L610.489 812.663L611 812.859Z" fill="white"/>
<path d="M445.79 681.268L445.254 681.378L445.058 681.889L444.948 681.353L444.437 681.157L444.973 681.047L445.169 680.536L445.279 681.072L445.79 681.268Z" fill="white"/>
<path d="M293.068 492.045L292.532 492.156L292.336 492.667L292.226 492.131L291.715 491.935L292.251 491.824L292.447 491.313L292.557 491.849L293.068 492.045Z" fill="white"/>
<path d="M559.612 394.553L559.076 394.663L558.88 395.174L558.769 394.638L558.259 394.442L558.795 394.332L558.991 393.821L559.101 394.357L559.612 394.553Z" fill="white"/>
<path d="M466.922 225.982L466.386 226.092L466.19 226.603L466.08 226.067L465.569 225.871L466.105 225.761L466.301 225.25L466.411 225.786L466.922 225.982Z" fill="white"/>
<path d="M185.01 307.146L184.474 307.256L184.278 307.767L184.167 307.231L183.656 307.035L184.193 306.925L184.388 306.414L184.499 306.95L185.01 307.146Z" fill="white"/>
<path d="M123.056 135.693L122.52 135.803L122.324 136.314L122.214 135.778L121.703 135.582L122.239 135.472L122.435 134.961L122.545 135.497L123.056 135.693Z" fill="white"/>
<path d="M429.942 140.976L429.406 141.086L429.21 141.597L429.1 141.061L428.589 140.865L429.125 140.755L429.321 140.244L429.431 140.78L429.942 140.976Z" fill="white"/>
<path d="M700.808 414.724L700.272 414.834L700.076 415.345L699.966 414.809L699.455 414.613L699.991 414.503L700.187 413.992L700.297 414.528L700.808 414.724Z" fill="white"/>
<path d="M535.599 475.236L535.063 475.347L534.867 475.858L534.757 475.322L534.246 475.126L534.782 475.015L534.978 474.504L535.088 475.04L535.599 475.236Z" fill="white"/>
<path d="M412.652 470.434L412.116 470.544L411.92 471.055L411.81 470.519L411.299 470.323L411.835 470.213L412.031 469.702L412.142 470.238L412.652 470.434Z" fill="white"/>
<path d="M457.797 248.554L457.261 248.664L457.065 249.175L456.955 248.639L456.444 248.443L456.98 248.333L457.176 247.822L457.286 248.358L457.797 248.554Z" fill="white"/>
<path d="M648.94 265.843L648.404 265.954L648.208 266.465L648.098 265.928L647.587 265.733L648.123 265.622L648.319 265.111L648.429 265.647L648.94 265.843Z" fill="white"/>
<path d="M91.8392 203.41L91.3032 203.52L91.1072 204.031L90.997 203.495L90.4861 203.299L91.0221 203.189L91.2181 202.678L91.3283 203.214L91.8392 203.41Z" fill="white"/>
<path d="M225.351 46.8451L224.815 46.9554L224.619 47.4663L224.509 46.9303L223.998 46.7343L224.534 46.6241L224.73 46.1131L224.84 46.6492L225.351 46.8451Z" fill="white"/>
<path d="M495.257 306.185L494.721 306.295L494.525 306.806L494.415 306.27L493.904 306.074L494.44 305.964L494.636 305.453L494.746 305.989L495.257 306.185Z" fill="white"/>
<path d="M397.284 616.433L396.748 616.543L396.552 617.054L396.442 616.518L395.931 616.322L396.467 616.212L396.663 615.701L396.773 616.237L397.284 616.433Z" fill="white"/>
<path d="M173.483 477.157L172.947 477.268L172.751 477.779L172.641 477.243L172.13 477.047L172.666 476.936L172.862 476.425L172.972 476.961L173.483 477.157Z" fill="white"/>
<path d="M349.258 298.501L348.722 298.611L348.526 299.122L348.416 298.586L347.905 298.39L348.441 298.28L348.637 297.769L348.747 298.305L349.258 298.501Z" fill="white"/>
<path d="M939.497 453.625L938.961 453.735L938.765 454.246L938.655 453.71L938.144 453.514L938.68 453.404L938.876 452.893L938.986 453.429L939.497 453.625Z" fill="white"/>
<path d="M1000.49 474.276L999.954 474.386L999.758 474.897L999.648 474.361L999.137 474.165L999.673 474.055L999.869 473.544L999.979 474.08L1000.49 474.276Z" fill="white"/>
<path d="M626.368 858.964L625.832 859.074L625.636 859.585L625.526 859.049L625.015 858.853L625.551 858.743L625.747 858.232L625.857 858.768L626.368 858.964Z" fill="white"/>
<path d="M469.323 818.142L468.787 818.252L468.591 818.763L468.481 818.227L467.97 818.031L468.506 817.92L468.702 817.41L468.812 817.946L469.323 818.142Z" fill="white"/>
<path d="M611.48 546.315L610.944 546.425L610.748 546.936L610.638 546.4L610.127 546.204L610.663 546.094L610.859 545.583L610.969 546.119L611.48 546.315Z" fill="white"/>
<path d="M367.453 382.743L366.38 382.964L365.988 383.986L365.767 382.914L364.745 382.522L365.818 382.301L366.21 381.279L366.43 382.351L367.453 382.743Z" fill="white"/>
<path d="M330.244 182.247L329.172 182.468L328.78 183.49L328.559 182.417L327.537 182.025L328.609 181.805L329.002 180.782L329.222 181.855L330.244 182.247Z" fill="white"/>
<path d="M755.754 331.128L754.682 331.348L754.289 332.37L754.069 331.298L753.047 330.906L754.119 330.685L754.511 329.663L754.732 330.735L755.754 331.128Z" fill="white"/>
<path d="M704.367 158.714L703.294 158.935L702.902 159.957L702.681 158.885L701.659 158.493L702.731 158.272L703.124 157.25L703.344 158.322L704.367 158.714Z" fill="white"/>
<path d="M598.229 55.4587L597.156 55.6792L596.764 56.7016L596.544 55.629L595.521 55.2368L596.594 55.0163L596.986 53.9939L597.207 55.0665L598.229 55.4587Z" fill="white"/>
<path d="M915.2 341.693L914.128 341.914L913.735 342.936L913.515 341.864L912.493 341.471L913.565 341.251L913.957 340.228L914.178 341.301L915.2 341.693Z" fill="white"/>
<path d="M522.348 540.521L521.276 540.741L520.883 541.764L520.663 540.691L519.641 540.299L520.713 540.078L521.105 539.056L521.326 540.128L522.348 540.521Z" fill="white"/>
<path d="M198.653 193.773L197.581 193.994L197.189 195.016L196.968 193.944L195.946 193.552L197.018 193.331L197.41 192.309L197.631 193.381L198.653 193.773Z" fill="white"/>
<path d="M31.043 329.687L29.9704 329.907L29.5783 330.93L29.3577 329.857L28.3353 329.465L29.4079 329.244L29.8001 328.222L30.0206 329.295L31.043 329.687Z" fill="white"/>
<path d="M158.312 96.761L157.239 96.9815L156.847 98.0039L156.626 96.9313L155.604 96.5392L156.676 96.3186L157.069 95.2962L157.289 96.3688L158.312 96.761Z" fill="white"/>
<path d="M2.70769 241.799L1.63509 242.02L1.24293 243.042L1.02241 241.97L3.74718e-06 241.577L1.0726 241.357L1.46476 240.334L1.68528 241.407L2.70769 241.799Z" fill="white"/>
</svg>
